<svg preserveAspectRatio="none" width="100%" height="100%" overflow="visible" style="display: block;" viewBox="0 0 20 20" fill="none" xmlns="http://www.w3.org/2000/svg">
<g id="Icon" clip-path="url(#clip0_640_141)">
<path id="Vector" d="M19.9608 3.80833C19.2121 4.138 18.4188 4.35562 17.6067 4.45417C18.4618 3.94021 19.102 3.1342 19.4092 2.185C18.6167 2.6475 17.7383 2.98417 16.8033 3.17167C16.1865 2.51202 15.3691 2.07452 14.478 1.92708C13.587 1.77965 12.6722 1.93054 11.8758 2.35633C11.0793 2.78211 10.4457 3.45896 10.0734 4.28177C9.70104 5.10458 9.6108 6.02731 9.81667 6.90667C6.40833 6.74583 3.38917 5.10833 1.36667 2.635C0.998995 3.25984 0.80722 3.97252 0.811667 4.6975C0.811667 6.1225 1.53667 7.375 2.635 8.11083C1.98405 8.09011 1.34748 7.91411 0.778334 7.5975V7.6475C0.777964 8.59449 1.10522 9.51245 1.70459 10.2456C2.30395 10.9788 3.13851 11.4821 4.06667 11.67C3.46525 11.8312 2.83534 11.8554 2.22333 11.7408C2.48677 12.5558 2.99805 13.2683 3.68585 13.7787C4.37364 14.2892 5.20363 14.5722 6.06 14.5883C4.60961 15.7266 2.81873 16.3444 0.975 16.3425C0.65 16.3425 0.325834 16.3233 2.38419e-07 16.2867C1.87976 17.4903 4.06543 18.1292 6.2975 18.1275C13.8417 18.1275 17.9625 11.8808 17.9625 6.47333C17.9625 6.29833 17.9625 6.12333 17.95 5.94833C18.755 5.36905 19.4494 4.64985 20 3.825L19.9608 3.80833Z" fill="var(--fill-0, white)"/>
</g>
<defs>
<clipPath id="clip0_640_141">
<rect width="20" height="20" fill="white"/>
</clipPath>
</defs>
</svg>
