<?xml version="1.0" encoding="UTF-8"?>
<svg id="Calque_1" xmlns="http://www.w3.org/2000/svg" version="1.1" viewBox="0 0 851.6 170.3">
  <!-- Generator: Adobe Illustrator 30.3.0, SVG Export Plug-In . SVG Version: 2.1.3 Build 182)  -->
  <defs>
    <style>
      .st0 {
        fill: #ff5c00;
      }

      .st1 {
        fill: #020202;
      }
    </style>
  </defs>
  <path class="st1" d="M821.8,147.3v8h17.1c1.1,0,2-.4,2.8-1.2.8-.8,1.2-1.7,1.2-2.8s-.4-2-1.2-2.8c-.8-.8-1.7-1.2-2.8-1.2h-17.1ZM851.6,151.3c0,2.2-.6,4.2-1.9,5.9-1.2,1.7-2.8,3-4.8,3.7l6.7,8.6h-9.2l-5.7-8h-14.8v8h-8.8v-28.6h28.2c1.9,0,3.6.5,5.2,1.4,1.6.9,2.8,2.2,3.7,3.7.9,1.6,1.4,3.3,1.4,5.2M796.8,141h8.7v28.6h-8.7v-28.6ZM778.2,157.8l-6.1-12.2-6.1,12.2h12.2ZM778.4,141l15.4,28.6h-9.7l-3-6h-18l-3,6h-9.7l15.4-28.6h12.7ZM740.7,155.3c1.1,0,2-.4,2.8-1.2.8-.8,1.2-1.7,1.2-2.8s-.4-2-1.2-2.8c-.8-.8-1.7-1.2-2.8-1.2h-17.1v8h17.1ZM743.1,141c1.9,0,3.6.5,5.2,1.4,1.6.9,2.8,2.2,3.7,3.7.9,1.6,1.4,3.3,1.4,5.2s-.5,3.6-1.4,5.2c-.9,1.6-2.2,2.8-3.7,3.7-1.6.9-3.3,1.4-5.2,1.4h-19.5v8h-8.7v-28.6h28.2ZM707.4,146.7h-26.6v5.8h26.6v5.5h-26.6v5.8h26.6v5.7h-35.4v-28.6h35.4v5.7ZM636.6,147.3v8h17.1c1.1,0,2-.4,2.8-1.2.8-.8,1.2-1.7,1.2-2.8s-.4-2-1.2-2.8c-.8-.8-1.7-1.2-2.8-1.2h-17.1ZM666.4,151.3c0,2.2-.6,4.2-1.9,5.9-1.2,1.7-2.8,3-4.8,3.7l6.7,8.6h-9.2l-5.8-8h-14.8v8h-8.8v-28.6h28.2c1.9,0,3.6.5,5.2,1.4,1.6.9,2.8,2.2,3.7,3.7.9,1.6,1.4,3.3,1.4,5.2M581.4,154.1h19.9v15.4h-4.7l-.5-4.1c-3.2,3.3-7.9,4.9-14.4,4.9s-11.8-1.2-15.2-3.6c-3.3-2.4-5-5.9-5-10.6v-1.6c0-4.7,1.7-8.2,5-10.6,3.3-2.4,8.4-3.6,15.2-3.6s10.2.9,13.5,2.6c3.3,1.7,5.3,4.3,6.2,7.6h-9.3c-.6-1-1.4-1.7-2.3-2.3-.9-.6-1.9-.9-2.9-1.2-1-.2-2-.4-2.9-.4-.9,0-1.6,0-2.2,0s-1.3,0-2.3,0c-.9,0-1.9.2-3,.4-1,.3-2,.7-3,1.3-.9.6-1.7,1.4-2.3,2.4-.6,1-.9,2.4-.9,4v.8c0,1.6.3,3,.9,4,.6,1,1.4,1.9,2.3,2.4.9.6,1.9,1,3,1.3,1,.3,2,.4,3,.5,1,0,1.7,0,2.3,0s1.4,0,2.4,0c1,0,2.1-.3,3.2-.6,1.1-.3,2.2-.8,3.1-1.5,1-.7,1.7-1.7,2.2-3h-11.2v-4.7ZM555.6,169.6h-11.4l-20.4-22.8v22.8h-8.7v-28.6h14.6l17.2,20v-20h8.8v28.6ZM498.8,141h8.7v28.6h-8.7v-28.6ZM495,141l-14.8,14.3,14.8,14.3h-11l-11.5-10.7h-8.7v10.7h-8.8v-28.6h8.8v10.7h8.7l11.5-10.7h11ZM429.7,164c.6,0,1.5,0,2.5,0,1.1,0,2.2-.3,3.3-.6,1.1-.3,2.2-.9,3.2-1.7,1-.8,1.6-1.8,2.1-3.2h8.9c-.5,3.9-2.4,6.9-5.8,8.9-3.3,2-8.1,3-14.2,3s-11.8-1.2-15.2-3.6c-3.3-2.4-5-5.9-5-10.6v-1.6c0-4.7,1.7-8.2,5-10.6,3.3-2.4,8.4-3.6,15.2-3.6s10.9,1,14.2,3c3.3,2,5.2,4.9,5.8,8.8h-8.9c-.4-1.4-1.1-2.4-2.1-3.2-1-.8-2-1.3-3.2-1.6-1.2-.3-2.3-.5-3.3-.6-1,0-1.9-.1-2.5-.1s-1.3,0-2.3,0c-.9,0-1.9.2-3,.4-1.1.3-2,.7-3,1.3-.9.6-1.7,1.4-2.3,2.4-.6,1-.9,2.4-.9,4v.8c0,1.7.3,3,.9,4.1.6,1,1.4,1.9,2.3,2.4.9.6,1.9,1,3,1.3,1,.3,2,.4,3,.5,1,0,1.7,0,2.3,0M393.8,157.8l-6.1-12.2-6.1,12.2h12.2ZM394,141l15.4,28.6h-9.7l-3-6h-18l-3,6h-9.7l15.4-28.6h12.7ZM333.1,147.3v8h17.1c1.1,0,2-.4,2.8-1.2.8-.8,1.2-1.7,1.2-2.8s-.4-2-1.2-2.8c-.8-.8-1.7-1.2-2.8-1.2h-17.1ZM362.9,151.3c0,2.2-.6,4.2-1.9,5.9-1.2,1.7-2.8,3-4.8,3.7l6.7,8.6h-9.2l-5.7-8h-14.8v8h-8.8v-28.6h28.2c1.9,0,3.6.5,5.2,1.4,1.6.9,2.8,2.2,3.7,3.7.9,1.6,1.4,3.3,1.4,5.2M297.8,146.7h-26.6v5.8h26.6v5.5h-26.6v5.8h26.6v5.7h-35.4v-28.6h35.4v5.7ZM240.9,141h12.9v28.6h-8.8v-21.1l-15.7,21.1h-4.3l-15.7-21.1v21.1h-8.7v-28.6h12.9l13.7,17.5,13.7-17.5ZM184.4,141h8.7v28.6h-8.7v-28.6ZM178.8,141v6.4h-15.1v22.3h-8.8v-22.3h-15.1v-6.4h38.9ZM134.2,146.7h-26.6v5.8h26.6v5.5h-26.6v5.8h26.6v5.7h-35.4v-28.6h35.4v5.7ZM93.7,147.3h-27v6.5h23.8v5.9h-23.8v9.9h-8.7v-28.6h35.8v6.3ZM41.7,141h8.7v28.6h-8.7v-28.6ZM.8,141h8.7v22.3h26.9v6.3H.8v-28.6Z"/>
  <polygon class="st1" points="851.6 97.5 822.6 97.5 822.6 60.6 746 60.6 746 97.5 717.1 97.5 717.1 2.4 746 2.4 746 39.4 822.6 39.4 822.6 2.4 851.6 2.4 851.6 97.5"/>
  <polygon class="st1" points="704.5 2.4 704.5 23.6 654.4 23.6 654.4 97.5 625.4 97.5 625.4 23.6 575.3 23.6 575.3 2.4 704.5 2.4"/>
  <path class="st1" d="M546.6,58.4l-20.2-40.5-20.3,40.5h40.5ZM547.5,2.4l51,95.1h-32.2l-10-19.8h-59.8l-10,19.8h-32.2L505.2,2.4h42.3Z"/>
  <rect class="st1" x="421" y="2.4" width="29" height="95.1"/>
  <polygon class="st1" points="290.9 2.4 319.9 2.4 319.9 76.4 409 76.4 409 97.5 290.9 97.5 290.9 2.4"/>
  <path class="st1" d="M211.3,0c22.5,0,39.2,4,50.2,12,11.1,8,16.6,19.8,16.6,35.2v5.2c0,15.4-5.5,27.2-16.6,35.2-11,8-27.8,12-50.2,12s-39.3-4-50.3-12c-4.9-3.6-8.7-7.9-11.4-12.9h38c2,1,4.2,1.7,6.3,2.2,3.5.8,6.8,1.4,9.9,1.6,3.2.1,5.7.2,7.6.2s4.4,0,7.5-.2c3.1-.2,6.4-.7,9.9-1.6,3.5-.8,6.9-2.2,10-4.2,3.1-2,5.7-4.7,7.6-8.1,2-3.5,3-8,3-13.5v-2.6c0-5.5-1-10-3-13.4-2-3.5-4.5-6.2-7.6-8.1-3.1-1.9-6.4-3.3-10-4.2-3.5-.8-6.8-1.3-9.9-1.5-3.1-.2-5.6-.3-7.5-.3s-4.4,0-7.6.3c-3.1.1-6.4.6-9.9,1.5-3.5.8-6.8,2.2-9.9,4.2-2.6,1.6-4.8,3.7-6.6,6.4h-31.1c2.4-8.8,7.3-15.9,14.8-21.3C172,4.1,188.8,0,211.3,0"/>
  <path class="st0" d="M183.9,42.8H59.9v22.7h41.3c-1.4,2.4-3.2,4.5-5.4,6.1-3.2,2.4-6.6,4.1-10.3,5.1-3.7,1-7.2,1.6-10.6,1.8-3.4.2-6.1.3-8.1.3s-4.4,0-7.6-.2c-3.1-.2-6.4-.7-9.9-1.6-3.5-.8-6.8-2.2-9.9-4.2-3.1-1.9-5.7-4.6-7.7-8.1-2-3.5-3-8-3-13.4v-2.7c0-5.5,1-10,3-13.4,2-3.5,4.6-6.2,7.7-8.1,3.1-1.9,6.4-3.3,9.9-4.2,3.5-.8,6.8-1.3,9.9-1.5,3.2-.2,5.7-.3,7.6-.3s4.3,0,7.3.3c3,.1,6.2.6,9.6,1.4,3.4.8,6.6,2.1,9.7,3.9,3.1,1.8,5.7,4.3,7.8,7.5h30.9c-2.8-11.2-9.7-19.7-20.5-25.4C100.8,2.9,85.9,0,66.9,0S27.6,4,16.5,12C5.5,20.1,0,31.8,0,47.3v5.2C0,68,5.5,79.7,16.5,87.8c11,8,27.8,12,50.3,12s28.5-2.9,38.4-8.8v7.9h28v-33.4h50.6v-22.7Z"/>
</svg>