<svg width="64" height="64" viewBox="0 0 64 64" fill="none" xmlns="http://www.w3.org/2000/svg">
<path d="M41.2718 34.3734L45.3118 57.1094C45.3571 57.3771 45.3195 57.6522 45.2042 57.898C45.0888 58.1438 44.9012 58.3485 44.6663 58.4848C44.4315 58.6211 44.1606 58.6824 43.89 58.6606C43.6193 58.6388 43.3618 58.5348 43.1518 58.3627L33.6052 51.1973C33.1443 50.853 32.5844 50.667 32.0092 50.667C31.4339 50.667 30.874 50.853 30.4132 51.1973L20.8505 58.36C20.6407 58.5318 20.3835 58.6356 20.1131 58.6575C19.8428 58.6793 19.5723 58.6182 19.3376 58.4823C19.1029 58.3464 18.9152 58.1422 18.7996 57.8969C18.684 57.6516 18.6459 57.3769 18.6905 57.1094L22.7278 34.3734" stroke="#FF5C00" stroke-width="3" stroke-linecap="round" stroke-linejoin="round"/>
<path d="M32 37.3333C40.8366 37.3333 48 30.1699 48 21.3333C48 12.4968 40.8366 5.33331 32 5.33331C23.1634 5.33331 16 12.4968 16 21.3333C16 30.1699 23.1634 37.3333 32 37.3333Z" stroke="#FF5C00" stroke-width="3" stroke-linecap="round" stroke-linejoin="round"/>
</svg>
