<svg width="59" height="70" viewBox="0 0 59 70" fill="none" xmlns="http://www.w3.org/2000/svg">
<rect width="59" height="58" fill="#FF5C00"/>
<path d="M40.1668 30.3333C40.1668 37 35.5002 40.3333 29.9535 42.2667C29.663 42.3651 29.3475 42.3604 29.0602 42.2533C23.5002 40.3333 18.8335 37 18.8335 30.3333V21C18.8335 20.6464 18.974 20.3072 19.224 20.0572C19.4741 19.8072 19.8132 19.6667 20.1668 19.6667C22.8335 19.6667 26.1668 18.0667 28.4868 16.04C28.7693 15.7987 29.1286 15.6661 29.5002 15.6661C29.8717 15.6661 30.231 15.7987 30.5135 16.04C32.8468 18.08 36.1668 19.6667 38.8335 19.6667C39.1871 19.6667 39.5263 19.8072 39.7763 20.0572C40.0264 20.3072 40.1668 20.6464 40.1668 21V30.3333Z" stroke="white" stroke-width="2" stroke-linecap="round" stroke-linejoin="round"/>
<path d="M59 69.5L45.5 56H59V69.5Z" fill="#FF5C00"/>
</svg>
