<svg width="59" height="70" viewBox="0 0 59 70" fill="none" xmlns="http://www.w3.org/2000/svg">
<rect width="59" height="58" fill="#FF5C00"/>
<path d="M33.0998 21.4C32.8555 21.6492 32.7187 21.9843 32.7187 22.3333C32.7187 22.6823 32.8555 23.0174 33.0998 23.2667L35.2331 25.4C35.4824 25.6443 35.8175 25.7811 36.1665 25.7811C36.5155 25.7811 36.8506 25.6443 37.0998 25.4L42.1265 20.3733C42.7969 21.8549 42.9999 23.5056 42.7084 25.1055C42.4169 26.7054 41.6448 28.1785 40.4948 29.3284C39.3449 30.4783 37.8719 31.2504 36.272 31.5419C34.6721 31.8334 33.0214 31.6304 31.5398 30.96L22.3265 40.1733C21.796 40.7038 21.0766 41.0018 20.3265 41.0018C19.5763 41.0018 18.8569 40.7038 18.3265 40.1733C17.796 39.6429 17.498 38.9235 17.498 38.1733C17.498 37.4232 17.796 36.7038 18.3265 36.1733L27.5398 26.96C26.8694 25.4784 26.6664 23.8277 26.9579 22.2278C27.2494 20.6279 28.0215 19.1549 29.1714 18.005C30.3213 16.855 31.7944 16.0829 33.3943 15.7914C34.9942 15.4999 36.6449 15.7029 38.1265 16.3733L33.1131 21.3867L33.0998 21.4Z" stroke="white" stroke-width="2" stroke-linecap="round" stroke-linejoin="round"/>
<path d="M59 69.5L45.5 56H59V69.5Z" fill="#FF5C00"/>
</svg>
