<svg width="162" height="162" viewBox="0 0 162 162" fill="none" xmlns="http://www.w3.org/2000/svg">
<circle cx="81" cy="81" r="81" fill="#FB1F29"/>
<path d="M100.618 74.6699C103.952 76.5944 103.951 81.4056 100.618 83.3301L74.9409 98.1549C71.6076 100.079 67.4409 97.6738 67.4409 93.8248L67.4409 64.1752C67.4409 60.3262 71.6076 57.9206 74.9409 59.8451L100.618 74.6699Z" fill="white"/>
<path d="M45.4199 116.896L47.1191 109.719H48.0684L48.2852 110.914L46.4746 118.25H45.4551L45.4199 116.896ZM44.5469 109.719L45.9531 116.896L45.8359 118.25H44.6992L42.8066 109.719H44.5469ZM49.7793 116.867L51.168 109.719H52.9082L51.0215 118.25H49.8848L49.7793 116.867ZM48.6016 109.719L50.3125 116.926L50.2656 118.25H49.2461L47.4238 110.908L47.6582 109.719H48.6016ZM57.4242 111.178L55.1039 118.25H53.2348L56.4047 109.719H57.5941L57.4242 111.178ZM59.352 118.25L57.0258 111.178L56.8383 109.719H58.0395L61.227 118.25H59.352ZM59.2465 115.074V116.451H54.7406V115.074H59.2465ZM65.4559 109.719V118.25H63.7039V109.719H65.4559ZM68.0809 109.719V111.096H61.1199V109.719H68.0809ZM74.2141 115.42H75.966C75.9309 115.994 75.7727 116.504 75.4914 116.949C75.2141 117.395 74.8254 117.742 74.3254 117.992C73.8293 118.242 73.2316 118.367 72.5324 118.367C71.9855 118.367 71.4953 118.273 71.0617 118.086C70.6281 117.895 70.257 117.621 69.9484 117.266C69.6437 116.91 69.4113 116.48 69.2512 115.977C69.091 115.473 69.0109 114.908 69.0109 114.283V113.691C69.0109 113.066 69.093 112.502 69.257 111.998C69.425 111.49 69.6633 111.059 69.9719 110.703C70.2844 110.348 70.6574 110.074 71.091 109.883C71.5246 109.691 72.009 109.596 72.5441 109.596C73.2551 109.596 73.8547 109.725 74.343 109.982C74.8352 110.24 75.216 110.596 75.4855 111.049C75.759 111.502 75.923 112.018 75.9777 112.596H74.2199C74.2004 112.252 74.132 111.961 74.0148 111.723C73.8977 111.48 73.7199 111.299 73.4816 111.178C73.2473 111.053 72.9348 110.99 72.5441 110.99C72.2512 110.99 71.9953 111.045 71.7766 111.154C71.5578 111.264 71.3742 111.43 71.2258 111.652C71.0773 111.875 70.966 112.156 70.8918 112.496C70.8215 112.832 70.7863 113.227 70.7863 113.68V114.283C70.7863 114.725 70.8195 115.113 70.8859 115.449C70.9523 115.781 71.0539 116.062 71.1906 116.293C71.3312 116.52 71.5109 116.691 71.7297 116.809C71.9523 116.922 72.2199 116.979 72.5324 116.979C72.8996 116.979 73.2023 116.92 73.4406 116.803C73.6789 116.686 73.8605 116.512 73.9855 116.281C74.1145 116.051 74.1906 115.764 74.2141 115.42ZM83.1598 113.193V114.564H78.7066V113.193H83.1598ZM79.2281 109.719V118.25H77.4703V109.719H79.2281ZM84.4137 109.719V118.25H82.6617V109.719H84.4137ZM92.7074 116.469L94.7172 109.719H96.6742L93.7035 118.25H92.4145L92.7074 116.469ZM90.8559 109.719L92.8598 116.469L93.1645 118.25H91.8637L88.9105 109.719H90.8559ZM99.6902 109.719V118.25H97.9383V109.719H99.6902ZM104.306 118.25H102.448L102.46 116.879H104.306C104.767 116.879 105.155 116.775 105.472 116.568C105.788 116.357 106.027 116.051 106.187 115.648C106.351 115.246 106.433 114.76 106.433 114.189V113.773C106.433 113.336 106.386 112.951 106.292 112.619C106.202 112.287 106.068 112.008 105.888 111.781C105.708 111.555 105.487 111.385 105.226 111.271C104.964 111.154 104.663 111.096 104.323 111.096H102.413V109.719H104.323C104.894 109.719 105.415 109.816 105.888 110.012C106.364 110.203 106.777 110.479 107.124 110.838C107.472 111.197 107.739 111.627 107.927 112.127C108.118 112.623 108.214 113.176 108.214 113.785V114.189C108.214 114.795 108.118 115.348 107.927 115.848C107.739 116.348 107.472 116.777 107.124 117.137C106.78 117.492 106.368 117.768 105.888 117.963C105.411 118.154 104.884 118.25 104.306 118.25ZM103.445 109.719V118.25H101.687V109.719H103.445ZM115.566 116.879V118.25H111.025V116.879H115.566ZM111.599 109.719V118.25H109.841V109.719H111.599ZM114.974 113.193V114.529H111.025V113.193H114.974ZM115.56 109.719V111.096H111.025V109.719H115.56ZM123.949 113.785V114.189C123.949 114.838 123.861 115.42 123.686 115.936C123.51 116.451 123.262 116.891 122.941 117.254C122.621 117.613 122.238 117.889 121.793 118.08C121.352 118.271 120.861 118.367 120.322 118.367C119.787 118.367 119.297 118.271 118.852 118.08C118.41 117.889 118.027 117.613 117.703 117.254C117.379 116.891 117.127 116.451 116.947 115.936C116.771 115.42 116.684 114.838 116.684 114.189V113.785C116.684 113.133 116.771 112.551 116.947 112.039C117.123 111.523 117.371 111.084 117.691 110.721C118.016 110.357 118.398 110.08 118.84 109.889C119.285 109.697 119.775 109.602 120.311 109.602C120.85 109.602 121.34 109.697 121.781 109.889C122.227 110.08 122.609 110.357 122.93 110.721C123.254 111.084 123.504 111.523 123.68 112.039C123.859 112.551 123.949 113.133 123.949 113.785ZM122.174 114.189V113.773C122.174 113.32 122.133 112.922 122.051 112.578C121.969 112.234 121.848 111.945 121.688 111.711C121.527 111.477 121.332 111.301 121.102 111.184C120.871 111.062 120.607 111.002 120.311 111.002C120.014 111.002 119.75 111.062 119.52 111.184C119.293 111.301 119.1 111.477 118.939 111.711C118.783 111.945 118.664 112.234 118.582 112.578C118.5 112.922 118.459 113.32 118.459 113.773V114.189C118.459 114.639 118.5 115.037 118.582 115.385C118.664 115.729 118.785 116.02 118.945 116.258C119.105 116.492 119.301 116.67 119.531 116.791C119.762 116.912 120.025 116.973 120.322 116.973C120.619 116.973 120.883 116.912 121.113 116.791C121.344 116.67 121.537 116.492 121.693 116.258C121.85 116.02 121.969 115.729 122.051 115.385C122.133 115.037 122.174 114.639 122.174 114.189Z" fill="white"/>
</svg>
